<svg width="110" height="40" fill="none" xmlns="http://www.w3.org/2000/svg"><g clip-path="url(#a)" fill="#401BE2"><path d="M12.905 22.305c1.323-.497 2.31-1.292 2.962-2.389.65-1.096.976-2.378.976-3.847 0-1.034-.154-1.975-.465-2.823a6.375 6.375 0 0 0-1.318-2.187 5.787 5.787 0 0 0-2.062-1.412c-.807-.33-1.705-.497-2.698-.497H.037v21.654H4.75v-7.94h3.38l3.783 7.941h5.24l-4.247-8.5Zm-.93-5.553c0 .704-.201 1.236-.605 1.598-.403.362-.957.542-1.659.542h-4.96v-5.646h4.961c.702 0 1.256.181 1.66.543.402.362.604.895.604 1.597v1.366Zm21.369-7.601h-5.83l-7.131 21.654h4.775l1.55-5.15h7.226l1.55 5.15h4.9l-7.04-21.654Zm-5.52 12.503 2.388-8.221h.155l2.419 8.22h-4.961ZM81.572 9.151h-5.83L68.61 30.805h4.776l1.55-5.15h7.226l1.55 5.15h4.9l-7.04-21.654Zm-5.519 12.503 2.388-8.221h.156l2.418 8.22h-4.962Zm29.528.651c1.323-.497 2.31-1.292 2.961-2.389.651-1.096.977-2.378.977-3.847 0-1.034-.155-1.975-.465-2.823a6.373 6.373 0 0 0-1.318-2.187 5.79 5.79 0 0 0-2.062-1.412c-.807-.33-1.706-.497-2.698-.497H92.712v21.654h4.713v-7.94h3.38l3.783 7.941h5.24l-4.247-8.5Zm-.929-5.553c0 .704-.202 1.236-.605 1.598-.403.362-.957.542-1.659.542h-4.962v-5.646h4.962c.702 0 1.256.181 1.659.543.403.362.605.895.605 1.597v1.366Zm-38.515 3.235C66.137 8.554 57.035.33 45.684.045l-1.55-.009v4.89h.94c8.933 0 16.175 6.124 16.175 15.061 0 8.938-7.242 15.07-16.175 15.07h-.94v4.89l1.55-.008c11.351-.286 20.453-8.517 20.453-19.952Z"/><path d="M46.199 30.805c5.97 0 10.809-4.855 10.809-10.827 0-5.973-4.84-10.814-10.81-10.814h-2.064v4.89h2.065a5.926 5.926 0 0 1 5.939 5.924 5.94 5.94 0 0 1-5.94 5.942h-2.064v4.885h2.065Z"/></g><defs><clipPath id="a"><path fill="#fff" d="M0 0h109.867v40H0z"/></clipPath></defs></svg>