<svg width="20" height="16" fill="none" xmlns="http://www.w3.org/2000/svg"><path d="M19.654 1.917c-.738.32-1.52.532-2.319.629a4.058 4.058 0 0 0 1.779-2.23 8.067 8.067 0 0 1-2.565.982A4.029 4.029 0 0 0 9.67 4.973 11.439 11.439 0 0 1 1.366.757a4.088 4.088 0 0 0-.54 2.035 4.02 4.02 0 0 0 1.788 3.35 3.98 3.98 0 0 1-1.828-.5v.049A4.03 4.03 0 0 0 4.03 9.62c-.35.107-.714.163-1.08.168a4.814 4.814 0 0 1-.758-.07 4.039 4.039 0 0 0 3.764 2.792A8.078 8.078 0 0 1 0 14.18 11.37 11.37 0 0 0 6.181 16 11.39 11.39 0 0 0 17.69 4.521v-.52a8.285 8.285 0 0 0 1.965-2.084Z" fill="#fff"/></svg>