<svg width="17" height="16" fill="none" xmlns="http://www.w3.org/2000/svg"><path d="M15.766 0H1.543a.889.889 0 0 0-.888.889V15.11c0 .491.398.889.888.889h14.223c.49 0 .888-.398.888-.889V.89a.889.889 0 0 0-.888-.89Z" fill="#fff"/><path fill-rule="evenodd" clip-rule="evenodd" d="M3.574 6.189h2.139v6.88H3.574V6.19Zm1.07-3.42a1.24 1.24 0 0 1 0 2.48 1.24 1.24 0 1 1 0-2.48Zm2.41 3.42h2.051v.94h.029c.285-.54.983-1.111 2.023-1.111 2.165 0 2.565 1.425 2.565 3.278v3.773h-2.137V9.723c0-.797-.015-1.824-1.111-1.824-1.113 0-1.284.87-1.284 1.767v3.403H7.054V6.19Z" fill="#000"/></svg>