<svg width="115" height="40" fill="none" xmlns="http://www.w3.org/2000/svg"><g clip-path="url(#a)"><path fill="#000" d="M0 0h114.595v40H0z"/><path d="M4.93 31.11H0V8.89h10.736c1.038 0 1.978.17 2.822.509a6.04 6.04 0 0 1 2.156 1.448 6.545 6.545 0 0 1 1.379 2.245c.325.87.487 1.837.487 2.897 0 1.507-.34 2.823-1.022 3.947-.682 1.126-1.714 1.943-3.098 2.451l4.445 8.724h-5.481l-3.958-8.15H4.931v8.15H4.93Zm5.19-12.225c.735 0 1.313-.185 1.735-.556.422-.371.633-.918.633-1.64v-1.401c0-.722-.21-1.268-.633-1.64-.422-.372-1-.557-1.735-.557H4.93v5.794h5.19ZM36.664 31.11l-1.622-5.284h-7.557l-1.622 5.285h-4.996L28.33 8.889h6.098L41.79 31.11h-5.126Zm-5.352-17.828h-.162l-2.497 8.437h5.19l-2.53-8.437h-.001ZM86.451 31.11l-1.622-5.284h-7.557l-1.622 5.285h-4.996l7.46-22.222h6.098l7.362 22.222H86.45h.001ZM81.1 13.283h-.162l-2.497 8.437h5.19l-2.53-8.437H81.1Zm20.521 17.827h-4.93V8.89h10.736c1.038 0 1.979.17 2.822.509a6.04 6.04 0 0 1 2.156 1.448 6.537 6.537 0 0 1 1.379 2.245c.325.87.487 1.837.487 2.897 0 1.507-.341 2.823-1.022 3.947-.682 1.126-1.714 1.943-3.097 2.451l4.444 8.724h-5.481l-3.958-8.15h-3.535v8.15h-.001Zm5.19-12.225c.735 0 1.313-.185 1.735-.556.423-.371.633-.918.633-1.64v-1.401c0-.722-.21-1.268-.633-1.64-.422-.372-1-.557-1.735-.557h-5.19v5.794h5.19ZM47.223 31.11H44.96v-4.444h2.264c3.745 0 6.792-2.99 6.792-6.666s-3.047-6.667-6.792-6.667H44.96V8.89h2.264c6.242 0 11.32 4.984 11.32 11.11 0 6.127-5.078 11.112-11.32 11.112Z" fill="#fff"/><path d="M47.223 40H44.96v-4.444h2.264c8.74 0 15.848-6.978 15.848-15.556S55.961 4.444 47.223 4.444H44.96V0h2.264C58.458 0 67.6 8.972 67.6 20s-9.14 20-20.376 20Z" fill="#fff"/></g><defs><clipPath id="a"><path fill="#fff" d="M0 0h114.595v40H0z"/></clipPath></defs></svg>