<svg width="528" height="528" fill="none" xmlns="http://www.w3.org/2000/svg"><circle cx="255.2" cy="255.2" r="8.3" stroke="#401BE2"/><circle cx="255.2" cy="255.2" r="25.9" stroke="#401BE2"/><circle cx="255.2" cy="255.2" r="61.1" stroke="#401BE2"/><circle cx="255.2" cy="255.2" r="113.9" stroke="#401BE2"/><circle cx="255.2" cy="255.2" r="201.9" stroke="#401BE2"/><rect x="70.4" width="17.6" height="17.6" rx="8" fill="#401BE2"/><path opacity=".5" fill="#401BE2" d="M211.2 0h35.2v35.2h-35.2z"/><path stroke="#401BE2" d="M352.5.5h69.4v69.4h-69.4z"/><rect opacity=".2" y="70.4" width="70.4" height="70.4" rx="32" fill="#401BE2"/><path fill="#401BE2" d="M140.8 70.4h17.6V88h-17.6z"/><rect opacity=".2" x="281.6" y="70.4" width="17.6" height="17.6" rx="8" fill="#401BE2"/><path fill="#401BE2" d="M422.4 70.4H440V88h-17.6z"/><rect opacity=".5" x="70.4" y="140.8" width="17.6" height="17.6" rx="8.8" fill="#401BE2"/><rect x="211.2" y="140.8" width="17.6" height="17.6" rx="8" fill="#401BE2"/><path opacity=".5" fill="#401BE2" d="M352 140.8h35.2V176H352z"/><rect opacity=".5" x="492.8" y="140.8" width="17.6" height="17.6" rx="8" fill="#401BE2"/><rect x=".5" y="211.7" width="16.6" height="16.6" rx="7.5" stroke="#401BE2"/><path fill="#401BE2" d="M140.8 211.2h17.6v17.6h-17.6z"/><rect opacity=".5" x="281.6" y="211.2" width="35.2" height="35.2" rx="16" fill="#401BE2"/><path fill="#401BE2" d="M422.4 211.2h70.4v70.4h-70.4zm-352 70.4H88v17.6H70.4z"/><rect x="211.7" y="282.1" width="16.6" height="16.6" rx="8.3" stroke="#401BE2"/><path fill="#401BE2" d="M352 281.6h17.6v17.6H352z"/><path opacity=".2" fill="#401BE2" d="M492.8 281.6H528v35.2h-35.2z"/><path fill="#401BE2" d="M0 352h17.6v17.6H0zm140.8 0h17.6v17.6h-17.6z"/><rect opacity=".5" x="281.6" y="352" width="35.2" height="35.2" rx="16" fill="#401BE2"/><rect x="422.4" y="352" width="17.6" height="17.6" rx="8.8" fill="#401BE2"/><path opacity=".5" fill="#401BE2" d="M70.4 422.4h70.4v70.4H70.4z"/><rect x="211.7" y="422.9" width="34.2" height="34.2" rx="15.5" stroke="#401BE2"/><path fill="#401BE2" d="M352 422.4h17.6V440H352zm140.8 0h17.6V440h-17.6z"/><path opacity=".2" fill="#401BE2" d="M140.8 492.8h17.6v17.6h-17.6z"/><path fill="#401BE2" d="M281.6 492.8h17.6v17.6h-17.6z"/><rect opacity=".2" x="422.4" y="492.8" width="35.2" height="35.2" rx="16" fill="#401BE2"/></svg>