<svg width="24" height="16" fill="none" xmlns="http://www.w3.org/2000/svg"><path fill-rule="evenodd" clip-rule="evenodd" d="M22.938 1.542C22.307.419 21.622.212 20.227.134 18.834.039 15.329 0 12.294 0c-3.042 0-6.547.04-7.94.132-1.391.08-2.078.285-2.715 1.41C.99 2.663.655 4.595.655 7.996v.011c0 3.386.334 5.333.984 6.443.637 1.122 1.322 1.326 2.714 1.42 1.394.082 4.9.13 7.94.13 3.037 0 6.54-.048 7.935-.128 1.395-.095 2.08-.298 2.712-1.421.656-1.11.987-3.056.987-6.442v-.012c0-3.402-.331-5.334-.989-6.455Z" fill="#fff"/><path fill-rule="evenodd" clip-rule="evenodd" d="M9.382 12.364V3.636L16.654 8l-7.272 4.364Z" fill="#000"/></svg>