<svg width="17" height="16" viewBox="0 0 17 16" fill="none" xmlns="http://www.w3.org/2000/svg">
<path d="M15.7745 0H1.53454C1.30115 0 1.07732 0.0927141 0.912287 0.257746C0.747255 0.422778 0.654541 0.646609 0.654541 0.88V15.12C0.654541 15.2356 0.677303 15.35 0.721527 15.4568C0.765751 15.5635 0.830572 15.6605 0.912287 15.7423C0.994003 15.824 1.09101 15.8888 1.19778 15.933C1.30455 15.9772 1.41898 16 1.53454 16H9.19854V9.8H7.11854V7.4H9.19854V5.6C9.15545 5.17741 9.20535 4.7505 9.34471 4.34923C9.48408 3.94796 9.70955 3.58204 10.0053 3.27713C10.3011 2.97222 10.66 2.73571 11.0568 2.58419C11.4536 2.43267 11.8788 2.3698 12.3025 2.4C12.9252 2.39617 13.5476 2.42822 14.1665 2.496V4.656H12.8945C11.8865 4.656 11.6945 5.136 11.6945 5.832V7.376H14.0945L13.7825 9.776H11.6945V16H15.7745C15.8901 16 16.0045 15.9772 16.1113 15.933C16.2181 15.8888 16.3151 15.824 16.3968 15.7423C16.4785 15.6605 16.5433 15.5635 16.5876 15.4568C16.6318 15.35 16.6545 15.2356 16.6545 15.12V0.88C16.6545 0.764437 16.6318 0.650005 16.5876 0.543239C16.5433 0.436472 16.4785 0.339462 16.3968 0.257746C16.3151 0.176031 16.2181 0.11121 16.1113 0.0669861C16.0045 0.0227619 15.8901 0 15.7745 0Z" fill="white"/>
</svg>
