<svg width="17" height="16" viewBox="0 0 17 16" fill="none" xmlns="http://www.w3.org/2000/svg">
<path d="M15.7657 0H1.54343C1.05251 0 0.654541 0.397969 0.654541 0.888889V15.1111C0.654541 15.602 1.05251 16 1.54343 16H15.7657C16.2566 16 16.6545 15.602 16.6545 15.1111V0.888889C16.6545 0.397969 16.2566 0 15.7657 0Z" fill="white"/>
<path fill-rule="evenodd" clip-rule="evenodd" d="M3.57423 6.189H5.71267V13.0694H3.57423V6.189ZM4.64378 2.76878C5.32756 2.76878 5.88312 3.32433 5.88312 4.00811C5.88312 4.69255 5.32756 5.24833 4.64378 5.24833C4.479 5.25145 4.31525 5.22169 4.1621 5.16079C4.00895 5.09988 3.86948 5.00906 3.75184 4.89363C3.6342 4.77819 3.54075 4.64047 3.47696 4.4885C3.41317 4.33653 3.38031 4.17337 3.38031 4.00855C3.38031 3.84374 3.41317 3.68058 3.47696 3.52861C3.54075 3.37664 3.6342 3.23891 3.75184 3.12348C3.86948 3.00805 4.00895 2.91723 4.1621 2.85632C4.31525 2.79542 4.479 2.76566 4.64378 2.76878ZM7.05401 6.18878H9.10512V7.129H9.13356C9.41912 6.58811 10.1167 6.01789 11.1569 6.01789C13.3222 6.01789 13.7222 7.443 13.7222 9.29567V13.0694H11.5851V9.72344C11.5851 8.92567 11.5705 7.89922 10.474 7.89922C9.36134 7.89922 9.19045 8.76833 9.19045 9.66589V13.0694H7.05378V6.189L7.05401 6.18878Z" fill="black"/>
</svg>
