<svg width="115" height="40" viewBox="0 0 115 40" fill="none" xmlns="http://www.w3.org/2000/svg">
<g clip-path="url(#clip0_684_3945)">
<rect width="114.595" height="40" fill="black"/>
<path d="M4.92981 31.1109H0V8.88867H10.7358C11.7738 8.88867 12.7145 9.05867 13.5578 9.39756C14.4012 9.73756 15.12 10.2198 15.7143 10.8464C16.3086 11.4731 16.7681 12.2209 17.093 13.0909C17.4179 13.9609 17.5798 14.9276 17.5798 15.9876C17.5798 17.4953 17.2391 18.8109 16.5576 19.9353C15.8761 21.0609 14.8438 21.8776 13.4605 22.3864L17.9047 31.1098H12.4236L8.46614 22.9598H4.93094V31.1098L4.92981 31.1109ZM10.12 18.8853C10.8546 18.8853 11.4331 18.6998 11.8553 18.3287C12.2775 17.9576 12.4881 17.4109 12.4881 16.6887V15.2876C12.4881 14.5664 12.2775 14.0198 11.8553 13.6476C11.4331 13.2764 10.8546 13.0909 10.12 13.0909H4.92981V18.8853H10.12Z" fill="white"/>
<path d="M36.664 31.1109L35.0418 25.8264H27.4847L25.8625 31.1109H20.8671L28.3291 8.88867H34.4272L41.7896 31.1109H36.6651H36.664ZM31.3119 13.282H31.15L28.6529 21.7187H33.8431L31.3131 13.282H31.3119Z" fill="white"/>
<path d="M86.4511 31.1109L84.8289 25.8264H77.2718L75.6496 31.1109H70.6542L78.114 8.88867H84.212L91.5744 31.1109H86.4499H86.4511ZM81.099 13.282H80.9372L78.44 21.7187H83.6302L81.1002 13.282H81.099Z" fill="white"/>
<path d="M101.621 31.1109H96.691V8.88867H107.427C108.465 8.88867 109.406 9.05867 110.249 9.39756C111.092 9.73756 111.811 10.2198 112.405 10.8464C113 11.4731 113.459 12.2209 113.784 13.0909C114.109 13.9609 114.271 14.9276 114.271 15.9876C114.271 17.4953 113.93 18.8109 113.249 19.9353C112.567 21.0609 111.535 21.8776 110.152 22.3864L114.596 31.1098H109.115L105.157 22.9598H101.622V31.1098L101.621 31.1109ZM106.811 18.8853C107.546 18.8853 108.124 18.6998 108.546 18.3287C108.969 17.9576 109.179 17.4109 109.179 16.6887V15.2876C109.179 14.5664 108.969 14.0198 108.546 13.6476C108.124 13.2764 107.546 13.0909 106.811 13.0909H101.621V18.8853H106.811Z" fill="white"/>
<path d="M47.2231 31.1109H44.9592V26.6664H47.2231C50.9678 26.6664 54.0151 23.6753 54.0151 19.9998C54.0151 16.3242 50.9678 13.3331 47.2231 13.3331H44.9592V8.88867H47.2231C53.4649 8.88867 58.543 13.8731 58.543 19.9998C58.543 26.1264 53.4649 31.1109 47.2231 31.1109Z" fill="white"/>
<path d="M47.2231 40H44.9592V35.5556H47.2231C55.9621 35.5556 63.071 28.5778 63.071 20C63.071 11.4222 55.961 4.44444 47.2231 4.44444H44.9592V0H47.2231C58.4581 0 67.5989 8.97222 67.5989 20C67.5989 31.0278 58.4581 40 47.2231 40Z" fill="white"/>
</g>
<defs>
<clipPath id="clip0_684_3945">
<rect width="114.595" height="40" fill="white"/>
</clipPath>
</defs>
</svg>
