<svg width="110" height="40" viewBox="0 0 110 40" fill="none" xmlns="http://www.w3.org/2000/svg">
<g clip-path="url(#clip0_1354_1850)">
<path d="M12.9055 22.3051C14.228 21.8085 15.2156 21.0128 15.8666 19.9162C16.5176 18.8205 16.8431 17.5384 16.8431 16.0692C16.8431 15.035 16.6885 14.094 16.3783 13.2461C16.0682 12.3983 15.6291 11.6692 15.0601 11.0589C14.4911 10.4487 13.8043 9.9786 12.9978 9.64697C12.1913 9.3162 11.2925 9.15039 10.2998 9.15039H0.0367432V30.8042H4.75008V22.8632H8.1298L11.9128 30.8051H17.1532L12.9055 22.3051ZM11.9751 16.7521C11.9751 17.4555 11.7735 17.988 11.3703 18.3495C10.967 18.7119 10.4134 18.8923 9.71116 18.8923H4.75008V13.2461H9.71202C10.4143 13.2461 10.9679 13.4273 11.3711 13.7889C11.7744 14.1512 11.976 14.6837 11.976 15.3863V16.7521H11.9751Z" fill="#401BE2"/>
<path d="M33.3444 9.15137H27.5145L20.3826 30.8052H25.1583L26.7089 25.6556H33.9339L35.4845 30.8052H40.3841L33.3444 9.15137ZM27.8246 21.6539L30.2125 13.4326H30.3671L32.7857 21.6539H27.8246Z" fill="#401BE2"/>
<path d="M81.5722 9.15137H75.7422L68.6103 30.8052H73.386L74.9366 25.6556H82.1617L83.7123 30.8052H88.6118L81.5722 9.15137ZM76.0532 21.6539L78.441 13.4326H78.5965L81.0151 21.6539H76.0532Z" fill="#401BE2"/>
<path d="M105.581 22.3051C106.904 21.8085 107.891 21.0128 108.542 19.9162C109.193 18.8205 109.519 17.5384 109.519 16.0692C109.519 15.035 109.364 14.094 109.054 13.2461C108.744 12.3983 108.305 11.6692 107.736 11.0589C107.167 10.4487 106.48 9.9786 105.674 9.64697C104.867 9.3162 103.968 9.15039 102.976 9.15039H92.7117V30.8042H97.4251V22.8632H100.805L104.588 30.8051H109.828L105.581 22.3051ZM104.652 16.7521C104.652 17.4555 104.45 17.988 104.047 18.3495C103.644 18.7119 103.09 18.8923 102.388 18.8923H97.4259V13.2461H102.388C103.09 13.2461 103.644 13.4273 104.047 13.7889C104.45 14.1512 104.652 14.6837 104.652 15.3863V16.7521Z" fill="#401BE2"/>
<path d="M66.137 19.9874C66.137 8.55409 57.035 0.33015 45.6844 0.0446796L44.1346 0.0361328V4.92587H45.0736C54.0073 4.92587 61.2494 11.0498 61.2494 19.9874C61.2494 28.925 54.0073 35.0575 45.0736 35.0575H44.1346V39.9473L45.6844 39.9387C57.035 39.6532 66.137 31.4216 66.137 19.9874Z" fill="#401BE2"/>
<path d="M46.1987 30.8051C52.1687 30.8051 57.0077 25.9504 57.0077 19.9777C57.0077 14.0051 52.1687 9.16406 46.1987 9.16406C46.0261 9.16406 44.1338 9.16406 44.1338 9.16406V14.0538C44.1338 14.0538 46.0253 14.0538 46.1987 14.0538C49.4785 14.0538 52.138 16.6965 52.138 19.9777C52.138 23.2589 49.4793 25.9196 46.1987 25.9196C46.0253 25.9196 44.1338 25.9196 44.1338 25.9196V30.8051C44.1346 30.8051 46.0261 30.8051 46.1987 30.8051Z" fill="#401BE2"/>
</g>
<defs>
<clipPath id="clip0_1354_1850">
<rect width="109.867" height="40" fill="white"/>
</clipPath>
</defs>
</svg>
