<svg width="20" height="16" viewBox="0 0 20 16" fill="none" xmlns="http://www.w3.org/2000/svg">
<path d="M19.6545 1.91691C18.9159 2.23737 18.1347 2.44921 17.3353 2.54585C18.1787 2.04203 18.8106 1.24942 19.114 0.315063C18.3215 0.786834 17.454 1.11923 16.5491 1.29779C15.9443 0.64189 15.1389 0.205288 14.2592 0.0564594C13.3795 -0.0923697 12.4753 0.0549921 11.6883 0.475433C10.9014 0.895874 10.2763 1.56561 9.91104 2.37961C9.54577 3.19361 9.461 4.10582 9.67003 4.97319C8.06763 4.89214 6.50019 4.4749 5.06955 3.74857C3.63891 3.02225 2.37707 2.00309 1.36599 0.75729C1.01136 1.37657 0.825018 2.0779 0.825491 2.79153C0.824233 3.45427 0.986871 4.10703 1.29892 4.6917C1.61098 5.27637 2.06276 5.77481 2.61405 6.14263C1.97329 6.1252 1.34622 5.95326 0.786182 5.64144V5.69058C0.790984 6.61915 1.11637 7.51756 1.70731 8.23384C2.29824 8.95013 3.11844 9.44031 4.02918 9.62149C3.6786 9.72818 3.31462 9.78443 2.94818 9.78855C2.69453 9.78559 2.44151 9.76259 2.19148 9.71976C2.45083 10.5185 2.95272 11.2166 3.62732 11.7168C4.30191 12.217 5.11566 12.4945 5.95533 12.5107C4.53745 13.6264 2.7869 14.2352 0.982727 14.2403C0.654236 14.2414 0.326006 14.2217 0 14.1813C1.84205 15.3707 3.98871 16.0021 6.18135 15.9994C7.69445 16.0151 9.19551 15.7292 10.5969 15.1583C11.9982 14.5873 13.2718 13.7429 14.3431 12.6743C15.4145 11.6057 16.2621 10.3343 16.8366 8.93447C17.4111 7.53459 17.7009 6.03427 17.6891 4.52113C17.6891 4.35407 17.6891 4.17718 17.6891 4.00029C18.4602 3.42521 19.1253 2.72021 19.6545 1.91691Z" fill="white"/>
</svg>
