<svg width="24" height="16" viewBox="0 0 24 16" fill="none" xmlns="http://www.w3.org/2000/svg">
<path fill-rule="evenodd" clip-rule="evenodd" d="M22.9382 1.54182C22.3069 0.418909 21.6218 0.212364 20.2269 0.133818C18.8335 0.0392727 15.3295 0 12.2938 0C9.25236 0 5.7469 0.0392728 4.3549 0.132364C2.9629 0.212364 2.27636 0.417454 1.63927 1.54182C0.989086 2.66327 0.654541 4.59491 0.654541 7.99564V8.00727C0.654541 11.3935 0.989086 13.3396 1.63927 14.4495C2.27636 15.5724 2.96145 15.776 4.35345 15.8705C5.7469 15.952 9.25236 16 12.2938 16C15.3295 16 18.8335 15.952 20.2284 15.872C21.6233 15.7775 22.3084 15.5738 22.9396 14.4509C23.5956 13.3411 23.9273 11.3949 23.9273 8.00873V8.00146V7.99709C23.9273 4.59491 23.5956 2.66327 22.9382 1.54182Z" fill="white"/>
<path fill-rule="evenodd" clip-rule="evenodd" d="M9.38181 12.3635V3.63623L16.6545 7.99987L9.38181 12.3635Z" fill="black"/>
</svg>
